<mxfile host="Electron" modified="2024-06-02T15:36:42.135Z" agent="Mozilla/5.0 (Windows NT 10.0; Win64; x64) AppleWebKit/537.36 (KHTML, like Gecko) draw.io/24.0.4 Chrome/120.0.6099.109 Electron/28.1.0 Safari/537.36" etag="-5tjaI7jms241eXSHdGh" version="24.0.4" type="device">
  <diagram name="Sida-1" id="ayqjWKwdt6PfqrmyTg2o">
    <mxGraphModel dx="780" dy="504" grid="1" gridSize="10" guides="1" tooltips="1" connect="1" arrows="1" fold="1" page="1" pageScale="1" pageWidth="827" pageHeight="1169" math="0" shadow="0">
      <root>
        <mxCell id="0" />
        <mxCell id="1" parent="0" />
        <mxCell id="1XPS7KtwjGPKveRo7xvv-1" value="HumanPlayer" style="swimlane;fontStyle=0;childLayout=stackLayout;horizontal=1;startSize=30;horizontalStack=0;resizeParent=1;resizeParentMax=0;resizeLast=0;collapsible=1;marginBottom=0;whiteSpace=wrap;html=1;" vertex="1" parent="1">
          <mxGeometry x="330" y="200" width="140" height="90" as="geometry" />
        </mxCell>
        <mxCell id="1XPS7KtwjGPKveRo7xvv-20" value="" style="endArrow=none;html=1;rounded=0;exitX=0.024;exitY=-0.033;exitDx=0;exitDy=0;exitPerimeter=0;entryX=0.995;entryY=-0.078;entryDx=0;entryDy=0;entryPerimeter=0;" edge="1" parent="1XPS7KtwjGPKveRo7xvv-1" source="1XPS7KtwjGPKveRo7xvv-3" target="1XPS7KtwjGPKveRo7xvv-3">
          <mxGeometry width="50" height="50" relative="1" as="geometry">
            <mxPoint x="40" y="90" as="sourcePoint" />
            <mxPoint x="90" y="40" as="targetPoint" />
          </mxGeometry>
        </mxCell>
        <mxCell id="1XPS7KtwjGPKveRo7xvv-2" value="Metod" style="text;strokeColor=none;fillColor=none;align=left;verticalAlign=middle;spacingLeft=4;spacingRight=4;overflow=hidden;points=[[0,0.5],[1,0.5]];portConstraint=eastwest;rotatable=0;whiteSpace=wrap;html=1;" vertex="1" parent="1XPS7KtwjGPKveRo7xvv-1">
          <mxGeometry y="30" width="140" height="30" as="geometry" />
        </mxCell>
        <mxCell id="1XPS7KtwjGPKveRo7xvv-3" value="+HumanPlayer(string name)" style="text;strokeColor=none;fillColor=none;align=left;verticalAlign=middle;spacingLeft=4;spacingRight=4;overflow=hidden;points=[[0,0.5],[1,0.5]];portConstraint=eastwest;rotatable=0;whiteSpace=wrap;html=1;" vertex="1" parent="1XPS7KtwjGPKveRo7xvv-1">
          <mxGeometry y="60" width="140" height="30" as="geometry" />
        </mxCell>
        <mxCell id="1XPS7KtwjGPKveRo7xvv-5" value="ComputerPlayer" style="swimlane;fontStyle=0;childLayout=stackLayout;horizontal=1;startSize=30;horizontalStack=0;resizeParent=1;resizeParentMax=0;resizeLast=0;collapsible=1;marginBottom=0;whiteSpace=wrap;html=1;" vertex="1" parent="1">
          <mxGeometry x="110" y="200" width="140" height="120" as="geometry" />
        </mxCell>
        <mxCell id="1XPS7KtwjGPKveRo7xvv-19" value="" style="endArrow=none;html=1;rounded=0;exitX=0.005;exitY=1.033;exitDx=0;exitDy=0;exitPerimeter=0;entryX=0.976;entryY=-0.078;entryDx=0;entryDy=0;entryPerimeter=0;" edge="1" parent="1XPS7KtwjGPKveRo7xvv-5" source="1XPS7KtwjGPKveRo7xvv-6" target="1XPS7KtwjGPKveRo7xvv-7">
          <mxGeometry width="50" height="50" relative="1" as="geometry">
            <mxPoint x="40" y="90" as="sourcePoint" />
            <mxPoint x="90" y="40" as="targetPoint" />
          </mxGeometry>
        </mxCell>
        <mxCell id="1XPS7KtwjGPKveRo7xvv-6" value="Metod" style="text;strokeColor=none;fillColor=none;align=left;verticalAlign=middle;spacingLeft=4;spacingRight=4;overflow=hidden;points=[[0,0.5],[1,0.5]];portConstraint=eastwest;rotatable=0;whiteSpace=wrap;html=1;" vertex="1" parent="1XPS7KtwjGPKveRo7xvv-5">
          <mxGeometry y="30" width="140" height="30" as="geometry" />
        </mxCell>
        <mxCell id="1XPS7KtwjGPKveRo7xvv-7" value="+ComputerPlayer(string name)" style="text;strokeColor=none;fillColor=none;align=left;verticalAlign=middle;spacingLeft=4;spacingRight=4;overflow=hidden;points=[[0,0.5],[1,0.5]];portConstraint=eastwest;rotatable=0;whiteSpace=wrap;html=1;" vertex="1" parent="1XPS7KtwjGPKveRo7xvv-5">
          <mxGeometry y="60" width="140" height="30" as="geometry" />
        </mxCell>
        <mxCell id="1XPS7KtwjGPKveRo7xvv-8" value="+void MakeRandomMove()" style="text;strokeColor=none;fillColor=none;align=left;verticalAlign=middle;spacingLeft=4;spacingRight=4;overflow=hidden;points=[[0,0.5],[1,0.5]];portConstraint=eastwest;rotatable=0;whiteSpace=wrap;html=1;" vertex="1" parent="1XPS7KtwjGPKveRo7xvv-5">
          <mxGeometry y="90" width="140" height="30" as="geometry" />
        </mxCell>
        <mxCell id="1XPS7KtwjGPKveRo7xvv-9" value="Player" style="swimlane;fontStyle=0;childLayout=stackLayout;horizontal=1;startSize=30;horizontalStack=0;resizeParent=1;resizeParentMax=0;resizeLast=0;collapsible=1;marginBottom=0;whiteSpace=wrap;html=1;" vertex="1" parent="1">
          <mxGeometry x="230" y="30" width="140" height="90" as="geometry" />
        </mxCell>
        <mxCell id="1XPS7KtwjGPKveRo7xvv-16" value="" style="endArrow=none;html=1;rounded=0;exitX=0.019;exitY=-0.056;exitDx=0;exitDy=0;exitPerimeter=0;entryX=1;entryY=0.944;entryDx=0;entryDy=0;entryPerimeter=0;" edge="1" parent="1XPS7KtwjGPKveRo7xvv-9" source="1XPS7KtwjGPKveRo7xvv-11" target="1XPS7KtwjGPKveRo7xvv-10">
          <mxGeometry width="50" height="50" relative="1" as="geometry">
            <mxPoint x="50" y="90" as="sourcePoint" />
            <mxPoint x="100" y="40" as="targetPoint" />
          </mxGeometry>
        </mxCell>
        <mxCell id="1XPS7KtwjGPKveRo7xvv-10" value="Attribut" style="text;strokeColor=none;fillColor=none;align=left;verticalAlign=middle;spacingLeft=4;spacingRight=4;overflow=hidden;points=[[0,0.5],[1,0.5]];portConstraint=eastwest;rotatable=0;whiteSpace=wrap;html=1;" vertex="1" parent="1XPS7KtwjGPKveRo7xvv-9">
          <mxGeometry y="30" width="140" height="30" as="geometry" />
        </mxCell>
        <mxCell id="1XPS7KtwjGPKveRo7xvv-11" value="-string Symbol{ get; }" style="text;strokeColor=none;fillColor=none;align=left;verticalAlign=middle;spacingLeft=4;spacingRight=4;overflow=hidden;points=[[0,0.5],[1,0.5]];portConstraint=eastwest;rotatable=0;whiteSpace=wrap;html=1;" vertex="1" parent="1XPS7KtwjGPKveRo7xvv-9">
          <mxGeometry y="60" width="140" height="30" as="geometry" />
        </mxCell>
        <mxCell id="1XPS7KtwjGPKveRo7xvv-13" value="" style="endArrow=classic;html=1;rounded=0;entryX=0.433;entryY=1.078;entryDx=0;entryDy=0;entryPerimeter=0;" edge="1" parent="1" target="1XPS7KtwjGPKveRo7xvv-11">
          <mxGeometry width="50" height="50" relative="1" as="geometry">
            <mxPoint x="290" y="240" as="sourcePoint" />
            <mxPoint x="293.28" y="151.67999999999995" as="targetPoint" />
          </mxGeometry>
        </mxCell>
        <mxCell id="1XPS7KtwjGPKveRo7xvv-14" value="" style="endArrow=none;dashed=1;html=1;dashPattern=1 3;strokeWidth=2;rounded=0;entryX=0;entryY=0.5;entryDx=0;entryDy=0;exitX=1;exitY=0.5;exitDx=0;exitDy=0;" edge="1" parent="1" source="1XPS7KtwjGPKveRo7xvv-6" target="1XPS7KtwjGPKveRo7xvv-2">
          <mxGeometry width="50" height="50" relative="1" as="geometry">
            <mxPoint x="260" y="240" as="sourcePoint" />
            <mxPoint x="330" y="230" as="targetPoint" />
          </mxGeometry>
        </mxCell>
      </root>
    </mxGraphModel>
  </diagram>
</mxfile>
